<svg width="1235" height="284" viewBox="0 0 1235 284" fill="none" xmlns="http://www.w3.org/2000/svg">
<path d="M1174.76 54.9473C1176.01 55.3455 1177.26 55.7436 1178.56 56.1538C1187.1 59.2245 1194.11 64.0125 1201.27 69.5281C1202.1 70.1552 1202.93 70.7823 1203.79 71.4284C1219.87 84.2969 1231.65 104.335 1234.14 124.853C1236.8 155.008 1234.11 183.125 1214.11 207.134C1200.23 223.116 1183.68 232.486 1162.83 236.544C1161.64 236.789 1160.44 237.033 1159.22 237.285C1142.36 239.557 1124.77 238.77 1108.48 233.893C1107.35 233.57 1106.22 233.247 1105.06 232.915C1083.58 225.591 1065.28 207.447 1055.46 187.5C1044.48 162.584 1041.65 135.155 1051.49 109.294C1061.7 83.665 1080.92 67.1136 1105.76 56.0897C1128.47 46.5527 1151.67 47.541 1174.76 54.9473Z" fill="#292119"/>
<path d="M513.285 51.9532C514.95 51.9449 516.615 51.9365 518.33 51.9279C520.161 51.9327 521.992 51.9381 523.823 51.9442C525.707 51.9424 527.59 51.9398 529.474 51.9365C533.436 51.9326 537.399 51.9383 541.361 51.9507C546.388 51.9656 551.414 51.9572 556.441 51.9412C560.342 51.9315 564.242 51.9347 568.143 51.9415C569.993 51.9433 571.842 51.9412 573.691 51.9349C596.249 51.8755 623.416 53.5467 641.899 68.2026C643.175 69.1868 644.451 70.171 645.766 71.185C657.355 80.9434 664.264 95.7761 665.758 110.619C667.327 133.434 665.445 152.955 650.266 170.848C646.274 175.37 646.274 175.37 643.224 176.896C644.055 181.947 645.543 186.195 647.636 190.86C648.259 192.262 648.883 193.664 649.526 195.109C650.507 197.288 650.507 197.288 651.509 199.512C665.758 231.372 665.758 231.372 665.758 235.219C656.959 235.319 648.159 235.389 639.359 235.437C636.365 235.457 633.37 235.484 630.376 235.519C626.075 235.567 621.775 235.589 617.475 235.607C616.133 235.628 614.79 235.648 613.407 235.669C611.537 235.67 611.537 235.67 609.629 235.67C608.531 235.679 607.433 235.688 606.302 235.697C602.754 235.1 601.668 234.048 599.482 231.242C598.187 228.451 597.008 225.606 595.904 222.735C595.586 221.917 595.268 221.099 594.94 220.256C593.931 217.653 592.937 215.045 591.943 212.436C591.26 210.666 590.575 208.896 589.89 207.126C588.216 202.798 586.555 198.464 584.901 194.127C582.499 194.092 580.096 194.066 577.693 194.045C576.356 194.029 575.018 194.014 573.639 193.998C570.4 193.748 570.4 193.748 568.995 195.453C568.784 198.391 568.662 201.336 568.575 204.281C568.548 205.162 568.52 206.043 568.492 206.95C568.405 209.773 568.327 212.596 568.249 215.419C568.192 217.328 568.134 219.238 568.076 221.148C567.933 225.838 567.799 230.528 567.669 235.219C558.632 235.252 549.595 235.275 540.558 235.292C537.481 235.298 534.405 235.307 531.328 235.319C526.916 235.335 522.504 235.342 518.091 235.348C516.014 235.358 516.014 235.358 513.895 235.369C512.621 235.369 511.347 235.369 510.035 235.369C508.908 235.372 507.78 235.375 506.619 235.378C504.044 235.219 504.044 235.219 502.719 233.893C502.585 231.585 502.545 229.271 502.541 226.958C502.536 225.454 502.53 223.951 502.524 222.402C502.525 220.737 502.525 219.073 502.526 217.358C502.521 215.617 502.517 213.876 502.512 212.081C502.501 207.292 502.498 202.502 502.497 197.712C502.496 193.719 502.491 189.727 502.486 185.734C502.475 176.318 502.472 166.901 502.473 157.485C502.474 147.758 502.46 138.03 502.439 128.303C502.421 119.964 502.414 111.624 502.415 103.285C502.415 98.2991 502.412 93.3132 502.398 88.3271C502.383 82.7693 502.388 77.2117 502.397 71.6539C502.389 69.9923 502.382 68.3306 502.374 66.6186C502.379 65.1112 502.385 63.6038 502.391 62.0507C502.39 60.7352 502.389 59.4198 502.389 58.0645C503.109 51.2616 507.561 51.9615 513.285 51.9532Z" fill="#292119"/>
<path d="M728.801 52.1457C729.694 52.1455 730.586 52.1453 731.506 52.1452C734.461 52.1461 737.416 52.1564 740.371 52.1668C742.417 52.1692 744.464 52.1711 746.511 52.1725C751.902 52.1775 757.293 52.1905 762.685 52.2052C768.184 52.2188 773.684 52.2248 779.184 52.2315C789.978 52.2457 800.772 52.2683 811.566 52.2962C818.78 77.8225 818.78 77.8225 821.01 88.6653C822.299 94.8358 823.717 100.925 825.406 107C827.593 114.891 829.406 122.846 831.2 130.834C833.749 142.044 836.442 153.194 839.402 164.303C842.724 176.78 845.708 189.317 848.559 201.91C849.016 203.929 849.016 203.929 849.483 205.99C849.781 207.306 850.079 208.622 850.386 209.979C851.683 215.509 853.116 221.002 854.569 226.493C855.308 229.917 855.308 229.917 855.308 235.219C846.484 235.286 837.66 235.332 828.836 235.364C825.833 235.378 822.829 235.396 819.826 235.419C815.516 235.451 811.206 235.466 806.895 235.478C804.872 235.498 804.872 235.498 802.807 235.519C801.56 235.519 800.313 235.519 799.028 235.52C797.927 235.525 796.827 235.531 795.692 235.537C793.008 235.219 793.008 235.219 790.357 232.568C789.573 229.469 788.896 226.343 788.286 223.206C787.619 217.514 787.619 217.514 785.055 212.685C782.018 212.568 778.977 212.543 775.937 212.555C775.027 212.557 774.117 212.559 773.179 212.561C770.262 212.568 767.344 212.585 764.427 212.602C762.453 212.609 760.48 212.615 758.506 212.62C753.659 212.635 748.811 212.658 743.964 212.685C741.094 220.269 740.178 226.878 738.662 235.219C717.666 235.219 696.669 235.219 675.037 235.219C673.536 229.214 674.205 226.792 675.782 220.886C676.023 219.968 676.263 219.049 676.51 218.103C677.333 214.968 678.172 211.838 679.013 208.708C683.492 191.872 687.78 175.021 691.651 158.034C694.463 145.695 697.349 133.375 700.265 121.06C700.779 118.888 701.293 116.716 701.806 114.544C713.747 63.9792 713.747 63.9792 717.454 53.6217C721.268 51.7147 724.539 52.138 728.801 52.1457Z" fill="#292119"/>
<path d="M355.4 51.9775C357.019 51.9834 358.637 51.9893 360.305 51.9953C361.198 51.9949 362.09 51.9945 363.01 51.9941C365.965 51.996 368.92 52.0166 371.875 52.0374C373.921 52.0423 375.968 52.0461 378.015 52.0488C383.406 52.0589 388.797 52.0849 394.189 52.1142C399.688 52.1413 405.188 52.1535 410.688 52.1668C421.482 52.1953 432.276 52.2405 443.07 52.2963C445.759 60.0514 448.087 67.8103 450.055 75.7777C450.322 76.8432 450.588 77.9086 450.863 79.0064C451.722 82.4457 452.574 85.8868 453.426 89.3281C454.026 91.7433 454.627 94.1584 455.228 96.5735C458.64 110.33 461.945 124.105 465.069 137.93C469.015 155.276 473.324 172.537 477.59 189.807C481.31 204.903 484.843 220.025 488.138 235.219C479.125 235.286 470.113 235.332 461.1 235.364C458.032 235.378 454.964 235.396 451.896 235.419C447.494 235.451 443.092 235.466 438.689 235.478C437.311 235.491 435.933 235.505 434.514 235.519C433.24 235.519 431.966 235.519 430.654 235.52C429.53 235.526 428.405 235.531 427.247 235.537C424.512 235.219 424.512 235.219 421.861 232.568C419.893 222.726 419.893 222.726 417.885 212.685C404.325 212.685 390.765 212.685 376.794 212.685C372.749 224.309 372.749 224.309 370.166 235.219C349.607 235.219 329.048 235.219 307.866 235.219C306.568 228.728 306.753 226.197 308.255 219.991C308.654 218.314 309.053 216.637 309.464 214.909C309.897 213.146 310.332 211.382 310.766 209.619C311.17 207.93 311.574 206.241 311.99 204.501C314.275 194.993 316.644 185.507 319.024 176.022C322.019 164.067 324.919 152.088 327.832 140.112C328.979 135.397 330.127 130.682 331.275 125.966C331.549 124.843 331.822 123.72 332.104 122.563C333.872 115.314 335.673 108.074 337.491 100.838C338.65 96.1689 339.757 91.4884 340.858 86.8055C348.919 52.5225 348.919 52.5225 355.4 51.9775Z" fill="#292119"/>
<path d="M160.49 51.9322C162.922 51.9132 162.922 51.9132 165.403 51.8939C167.187 51.8943 168.972 51.8955 170.757 51.8976C172.598 51.8924 174.439 51.8867 176.281 51.8804C180.158 51.8704 184.036 51.8709 187.914 51.8778C191.848 51.8839 195.781 51.875 199.714 51.8506C271.431 51.4093 271.431 51.4093 294.901 73.6393C309.566 89.1249 313.67 107.702 313.453 128.509C312.42 145.364 307.499 162.621 294.611 174.245C277.721 187.522 258.557 191.044 237.779 192.471C234.9 192.69 232.022 192.916 229.144 193.147C226.584 193.35 224.021 193.534 221.459 193.717C217.862 193.72 217.862 193.72 216.405 195.453C216.195 198.391 216.072 201.336 215.986 204.281C215.958 205.162 215.931 206.043 215.902 206.95C215.815 209.773 215.737 212.596 215.66 215.419C215.602 217.328 215.544 219.238 215.486 221.148C215.344 225.838 215.21 230.528 215.08 235.219C206.043 235.252 197.006 235.275 187.969 235.292C184.892 235.298 181.815 235.307 178.738 235.319C174.326 235.335 169.914 235.342 165.502 235.348C163.425 235.358 163.425 235.358 161.305 235.369C160.032 235.369 158.758 235.369 157.445 235.369C156.318 235.372 155.191 235.375 154.029 235.378C151.454 235.219 151.454 235.219 150.129 233.893C149.995 231.585 149.956 229.271 149.952 226.958C149.946 225.454 149.94 223.951 149.935 222.402C149.935 220.737 149.936 219.073 149.936 217.358C149.932 215.617 149.927 213.875 149.923 212.081C149.911 207.292 149.908 202.502 149.907 197.712C149.906 193.719 149.901 189.727 149.896 185.734C149.886 176.318 149.882 166.901 149.883 157.485C149.884 147.758 149.87 138.03 149.849 128.303C149.832 119.964 149.825 111.624 149.826 103.285C149.826 98.2991 149.822 93.3132 149.808 88.3271C149.793 82.7693 149.799 77.2117 149.807 71.6539C149.799 69.9922 149.792 68.3306 149.784 66.6186C149.79 65.1112 149.795 63.6038 149.801 62.0507C149.8 60.7352 149.8 59.4198 149.799 58.0645C150.51 51.35 154.817 51.9564 160.49 51.9322Z" fill="#292119"/>
<path d="M881.638 51.9532C883.272 51.9449 884.906 51.9365 886.59 51.9279C888.388 51.9327 890.185 51.9381 891.983 51.9442C893.833 51.9424 895.684 51.9398 897.534 51.9365C901.429 51.9326 905.323 51.9383 909.218 51.9507C914.152 51.9656 919.086 51.9572 924.021 51.9412C927.855 51.9315 931.688 51.9347 935.522 51.9415C938.208 51.9441 940.894 51.9362 943.58 51.9279C969.502 52.0562 996.939 55.3587 1016.77 73.6704C1030.3 87.9999 1034.73 106.618 1034.46 125.796C1033.17 146.877 1028.66 160.66 1013.29 175.239C999.653 187.088 981.666 190.874 963.975 192.139C962.512 192.248 961.048 192.358 959.54 192.471C956.468 192.693 953.396 192.914 950.324 193.133C948.869 193.243 947.414 193.352 945.915 193.465C943.919 193.608 943.919 193.608 941.882 193.755C938.87 193.801 938.87 193.801 937.491 195.453C937.28 198.391 937.157 201.336 937.071 204.281C937.044 205.162 937.016 206.043 936.988 206.95C936.901 209.773 936.823 212.596 936.745 215.419C936.688 217.328 936.63 219.238 936.572 221.148C936.429 225.838 936.295 230.528 936.165 235.219C927.128 235.252 918.091 235.275 909.054 235.292C905.977 235.298 902.9 235.307 899.824 235.319C895.411 235.335 890.999 235.342 886.587 235.348C884.51 235.358 884.51 235.358 882.391 235.369C881.117 235.369 879.843 235.369 878.531 235.369C877.404 235.372 876.276 235.375 875.115 235.378C872.54 235.219 872.54 235.219 871.214 233.893C871.081 231.585 871.041 229.271 871.037 226.958C871.031 225.454 871.026 223.951 871.02 222.402C871.021 220.737 871.021 219.073 871.022 217.358C871.017 215.617 871.013 213.876 871.008 212.081C870.997 207.292 870.994 202.502 870.993 197.712C870.991 193.719 870.987 189.727 870.982 185.734C870.971 176.318 870.968 166.901 870.969 157.485C870.97 147.758 870.956 138.03 870.935 128.303C870.917 119.964 870.91 111.624 870.911 103.285C870.911 98.2991 870.908 93.3132 870.894 88.3271C870.878 82.7693 870.884 77.2117 870.892 71.6539C870.885 69.9923 870.877 68.3306 870.87 66.6186C870.875 65.1112 870.881 63.6038 870.887 62.0507C870.886 60.7352 870.885 59.4198 870.884 58.0645C871.598 51.319 875.949 51.9616 881.638 51.9532Z" fill="#292119"/>
<path d="M11.0497 51.9517C12.1784 51.9591 13.3071 51.9666 14.47 51.9743C15.6577 51.9717 16.8454 51.9692 18.0691 51.9666C22.0075 51.9617 25.9457 51.9759 29.8841 51.9908C32.6112 51.9923 35.3384 51.9929 38.0655 51.9926C43.7853 51.9947 49.505 52.0057 55.2247 52.0234C62.5739 52.046 69.923 52.051 77.2721 52.05C82.9042 52.0504 88.5362 52.0576 94.1682 52.0673C96.879 52.0715 99.5897 52.0741 102.3 52.0751C106.081 52.0779 109.861 52.0895 113.641 52.1037C115.338 52.1028 115.338 52.1028 117.069 52.1019C124.792 52.1445 124.792 52.1445 126.269 53.6218C126.387 57.252 126.422 60.8495 126.399 64.4797C126.398 65.4425 126.396 66.4053 126.395 67.3972C126.388 71.0071 126.369 74.617 126.352 78.2268C126.325 86.2918 126.298 94.3568 126.269 102.666C106.585 102.666 86.9013 102.666 66.6208 102.666C66.1834 109.228 65.746 115.789 65.2953 122.549C66.8142 122.582 68.3331 122.615 69.8981 122.65C75.5131 122.774 81.128 122.907 86.7428 123.043C89.1768 123.1 91.6108 123.155 94.0449 123.208C97.5359 123.285 101.027 123.369 104.517 123.455C106.16 123.488 106.16 123.488 107.835 123.522C115.514 123.724 115.514 123.724 116.991 125.2C117.107 128.044 117.133 130.892 117.12 133.738C117.114 136.333 117.114 136.333 117.107 138.981C117.096 140.822 117.085 142.662 117.074 144.503C117.067 146.349 117.061 148.195 117.055 150.041C117.04 154.574 117.018 159.107 116.991 163.64C115.512 163.674 114.033 163.707 112.51 163.741C107.043 163.865 101.576 163.998 96.1095 164.134C93.7399 164.191 91.3701 164.247 89.0004 164.3C85.6015 164.376 82.2029 164.46 78.8043 164.546C77.7383 164.569 76.6724 164.591 75.5741 164.614C70.6945 164.293 70.6945 164.293 66.6208 166.291C66.5246 169.19 66.5098 172.091 66.538 174.99C66.5499 176.578 66.5619 178.165 66.5742 179.8C66.5896 181.029 66.605 182.257 66.6208 183.523C67.3485 183.537 68.0763 183.551 68.8261 183.565C76.373 183.708 83.9197 183.859 91.4663 184.017C94.286 184.074 97.1058 184.13 99.9256 184.182C103.969 184.259 108.013 184.343 112.056 184.429C113.325 184.451 114.594 184.474 115.901 184.496C117.069 184.523 118.237 184.549 119.44 184.577C120.473 184.597 121.506 184.618 122.57 184.639C124.944 184.849 124.944 184.849 126.269 186.174C126.387 189.805 126.422 193.402 126.399 197.032C126.397 198.119 126.395 199.206 126.393 200.325C126.386 203.81 126.369 207.295 126.352 210.779C126.346 213.136 126.34 215.493 126.334 217.85C126.32 223.639 126.297 229.429 126.269 235.219C110.047 235.249 93.8238 235.273 77.6009 235.287C70.0688 235.294 62.5367 235.304 55.0047 235.319C47.7423 235.333 40.4799 235.341 33.2176 235.344C30.4402 235.347 27.6629 235.352 24.8855 235.359C21.0098 235.368 17.1341 235.37 13.2584 235.369C12.0981 235.374 10.9377 235.379 9.74225 235.384C1.82127 235.37 1.82127 235.37 0.344569 233.893C0.21115 231.585 0.171235 229.271 0.167329 226.958C0.161676 225.454 0.156022 223.951 0.150198 222.402C0.150798 220.737 0.151399 219.073 0.152018 217.358C0.147566 215.617 0.143114 213.875 0.138527 212.081C0.126782 207.292 0.123709 202.502 0.122865 197.712C0.121609 193.719 0.116736 189.727 0.112033 185.734C0.101226 176.318 0.0980041 166.901 0.0989451 157.485C0.0997418 147.758 0.085752 138.03 0.0648215 128.303C0.0475143 119.964 0.040377 111.624 0.0412255 103.285C0.0415642 98.2991 0.0377447 93.3132 0.0237579 88.3271C0.00859369 82.7693 0.0145513 77.2117 0.0225721 71.6539C0.0151233 69.9922 0.00767452 68.3306 0 66.6186C0.0055599 65.1112 0.0111198 63.6037 0.0168482 62.0507C0.0161261 60.7352 0.015404 59.4198 0.01466 58.0645C0.738545 51.2248 5.24925 51.9831 11.0497 51.9517Z" fill="#292119"/>
<path d="M1100.53 0.600772C1106.5 0.469687 1112.47 0.373475 1118.43 0.309519C1120.46 0.282858 1122.49 0.246679 1124.52 0.200785C1127.44 0.13645 1130.36 0.106391 1133.28 0.0829889C1134.19 0.0556233 1135.09 0.0282576 1136.03 6.2722e-05C1140.09 -0.00185411 1142.33 0.0214663 1145.35 2.87416C1146.99 6.03874 1148.53 9.17969 1149.92 12.4632C1150.45 13.696 1150.97 14.9288 1151.51 16.199C1152.32 18.1148 1152.32 18.1148 1153.14 20.0694C1153.69 21.362 1154.24 22.6547 1154.81 23.9864C1158.85 33.5345 1158.85 33.5345 1158.85 35.0644C1153.09 35.5973 1147.32 36.0045 1141.54 36.3899C1139.09 36.618 1139.09 36.618 1136.6 36.8508C1124.79 37.551 1124.79 37.551 1120.12 34.411C1117.67 31.6731 1115.74 28.8911 1113.79 25.7857C1112.41 23.9366 1111.03 22.0915 1109.64 20.2506C1108.37 18.4277 1107.1 16.5999 1105.83 14.7673C1105.17 13.8369 1104.5 12.9066 1103.82 11.948C1102.89 10.6037 1102.89 10.6037 1101.94 9.23222C1101.38 8.43202 1100.82 7.63182 1100.25 6.80737C1099.2 4.57735 1099.2 4.57735 1100.53 0.600772Z" fill="#292119"/>
<path d="M1146.92 102.666C1152.01 105.717 1155.22 109.13 1157.53 114.596C1158.53 119.901 1158.47 124.362 1156.3 129.358C1153.32 133.689 1150.98 135.507 1145.78 136.607C1139.48 136.897 1134.01 136.869 1128.86 132.905C1125.04 128.373 1122.88 125.782 1123.23 119.712C1124.12 114.092 1125.27 110.373 1129.69 106.643C1135.52 102.756 1139.93 101.698 1146.92 102.666Z" fill="#FCFDFF"/>
<path d="M957.373 102.666C963.073 105.959 965.695 109.795 967.978 115.921C968.814 123.864 967.12 127.809 962.349 133.956C958.117 137.321 953.327 136.575 948.131 136.436C942.897 135.612 940.088 133.991 936.45 130.202C933.736 126.24 933.347 123.331 933.514 118.573C935.622 111.663 938.116 107.993 944.118 103.992C948.374 101.864 952.757 102.036 957.373 102.666Z" fill="#FCFDFF"/>
<path d="M774.12 104.24C778.717 107.943 780.691 110.732 781.596 116.662C781.962 122.783 782.042 127.849 778.013 132.739C773.163 136.693 768.2 136.84 762.123 136.508C756.401 135.382 753.514 133.147 749.266 129.177C747.377 123.511 746.741 118.679 749.188 113.053C751.609 108.88 753.606 105.925 757.716 103.329C763.675 102.194 768.468 101.8 774.12 104.24Z" fill="#FCFDFF"/>
<path d="M584.901 102.666C589.723 105.406 593.958 109.18 595.505 114.596C596.181 123.113 595.192 127.198 589.841 133.961C585.842 137.181 581.524 136.415 576.591 136.265C571.483 135.615 568.736 134.034 565.018 130.502C562.38 126.502 560.966 124.052 561.207 119.235C563.49 112.713 565.538 107.618 571.646 103.992C576.488 102.378 579.808 102.148 584.901 102.666Z" fill="#FCFDFF"/>
<path d="M234.962 102.666C239.803 106.559 243.844 110.593 244.78 116.905C245.11 127.955 245.11 127.955 241.176 133.485C235.278 137.211 228.372 137.052 221.707 135.804C217.409 133.642 214.828 130.53 211.849 126.774C210.297 120.738 211.643 115.13 214.003 109.542C219.737 102.621 226.506 101.592 234.962 102.666Z" fill="#FCFDFF"/>
<path d="M403.304 102.666C408.543 106.625 411.726 111.063 413.908 117.247C414.194 123.045 413.22 126.884 410.015 131.745C406.093 135.666 403.748 136.063 398.333 136.219C391.884 136.144 388.322 134.924 383.421 130.502C380.032 126.457 379.431 124.631 379.528 119.318C381.251 112.769 383.844 108.499 389.055 104.157C393.95 102.155 398.097 101.547 403.304 102.666Z" fill="#FCFDFF"/>
<path d="M1156.2 251.125C1160.95 254.925 1164.12 258.404 1165.48 264.38C1165.8 271.084 1165.15 275.09 1160.84 280.369C1156.52 283.329 1152.53 283.961 1147.35 283.688C1141.8 282.334 1137.68 278.939 1133.67 274.984C1131.61 270.863 1131.96 267.611 1132.34 263.055C1137.95 252.64 1144.4 248.276 1156.2 251.125Z" fill="#292119"/>
<path d="M69.2719 251.125C74.224 254.458 76.741 258.144 77.9913 263.982C78.3591 270.108 78.096 275.026 74.0769 279.872C69.4884 283.604 65.0768 284.005 59.2942 283.621C53.966 282.51 50.315 280.414 46.738 276.31C44.0094 270.643 43.738 268.175 45.5781 262.143C51.0453 252.485 57.9755 247.165 69.2719 251.125Z" fill="#292119"/>
</svg>
