<?xml version="1.0" standalone="no"?>
<!DOCTYPE svg PUBLIC "-//W3C//DTD SVG 20010904//EN"
 "http://www.w3.org/TR/2001/REC-SVG-20010904/DTD/svg10.dtd">
<svg version="1.0" xmlns="http://www.w3.org/2000/svg"
 width="576.000000pt" height="576.000000pt" viewBox="0 0 576.000000 576.000000"
 preserveAspectRatio="xMidYMid meet">

<g transform="translate(0.000000,576.000000) scale(0.100000,-0.100000)"
fill="#000000" stroke="none">
<path d="M1165 5738 c-11 -5 -67 -71 -125 -145 -58 -75 -110 -141 -115 -147
-6 -6 -39 -47 -72 -91 -65 -84 -174 -224 -310 -396 -45 -57 -185 -237 -312
-399 l-230 -295 -1 -198 c0 -162 2 -196 13 -185 7 7 55 68 107 136 144 188
208 270 285 367 39 49 107 137 153 195 45 58 111 141 145 185 35 44 130 166
212 270 81 105 173 222 204 260 31 39 83 105 115 148 l59 77 1521 0 1522 0
139 -176 c124 -156 293 -367 475 -594 33 -41 128 -160 211 -265 83 -104 171
-215 195 -245 24 -30 101 -127 171 -215 70 -88 130 -162 133 -165 3 -3 23 -27
44 -55 22 -27 43 -54 48 -59 4 -6 8 78 8 186 l0 195 -64 79 c-62 77 -684 859
-1035 1300 -97 122 -186 227 -199 233 -31 15 -3268 14 -3297 -1z"/>
<path d="M2695 5306 c-214 -30 -405 -126 -556 -279 -466 -471 -352 -1241 230
-1555 l74 -40 -44 -22 c-356 -181 -567 -539 -546 -928 24 -453 352 -828 802
-917 129 -25 317 -17 440 19 348 104 602 367 691 715 20 76 25 122 26 222 0
175 -28 302 -98 442 -95 190 -230 329 -417 432 l-68 38 71 39 c240 129 418
358 484 618 73 291 11 600 -171 837 -215 283 -570 429 -918 379z m372 -172
c306 -63 547 -296 630 -611 25 -94 24 -282 -1 -378 -21 -84 -80 -214 -125
-275 -44 -62 -126 -145 -186 -190 -52 -40 -158 -100 -175 -100 -6 0 -10 68
-10 175 l0 175 -162 -2 -163 -3 -3 -204 -2 -204 -58 6 c-31 4 -79 12 -107 19
l-50 13 -3 188 -2 187 -55 0 -55 0 0 -160 c0 -88 -4 -160 -8 -160 -17 0 -135
82 -184 128 -91 85 -169 202 -216 327 -46 119 -56 333 -23 465 69 273 278 496
549 584 114 38 283 46 409 20z m-249 -1790 l52 -7 0 -593 0 -594 165 0 165 0
0 435 0 435 -22 0 c-56 0 -128 84 -128 148 0 38 27 102 42 102 24 0 132 -67
196 -120 89 -75 154 -161 207 -275 60 -126 75 -197 75 -346 0 -195 -49 -345
-160 -492 -148 -196 -409 -327 -650 -327 -82 0 -213 27 -298 61 -345 137 -562
500 -512 859 28 203 135 398 288 525 68 56 248 155 282 155 20 0 20 -11 20
-580 l0 -580 55 0 55 0 0 594 0 595 38 4 c67 7 77 7 130 1z"/>
<path d="M5725 3644 c-16 -25 -35 -53 -40 -62 -6 -9 -91 -137 -190 -285 -99
-147 -196 -292 -215 -322 -19 -29 -147 -222 -285 -427 -137 -205 -254 -381
-260 -390 -5 -9 -329 -495 -720 -1079 -390 -584 -712 -1066 -713 -1071 -2 -5
63 -7 144 -6 l147 3 1084 1624 1083 1624 0 219 c0 120 -1 218 -2 218 -2 0 -16
-21 -33 -46z"/>
<path d="M0 3314 l0 -220 198 -300 c109 -164 266 -400 347 -524 82 -124 232
-351 333 -505 102 -154 254 -383 337 -510 160 -242 745 -1126 799 -1207 l31
-47 147 -1 147 0 -95 147 c-53 81 -104 158 -114 172 -10 14 -173 260 -362 546
-539 814 -583 879 -588 890 -3 5 -90 138 -194 295 -104 157 -250 377 -324 490
-318 483 -645 976 -653 985 -5 5 -9 -85 -9 -211z"/>
</g>
</svg>
